Coordinates
version=1
nRows=30
nColumns=33
inDegrees=yes

Units are S.I. units (second, meters, Newtons, ...)
Angles are in degrees.

endheader
time	ground_thorax_rot_x	ground_thorax_rot_y	ground_thorax_rot_z	ground_thorax_tx	ground_thorax_ty	ground_thorax_tz	clav_prot_r	clav_elev_r	scapula_abduction_r	scapula_elevation_r	scapula_upward_rot_r	scapula_winging_r	shoulder_elv_r	plane_of_elev_r	axial_rot_r	elbow_flexion_r	pro_sup_r	wrist_flex_r	wrist_dev_r	clav_prot_l	clav_elev_l	scapula_abduction_l	scapula_elevation_l	scapula_upward_rot_l	scapula_winging_l	shoulder_elv_l	plane_of_elev_l	axial_rot_l	elbow_flexion_l	pro_sup_l	wrist_flex_l	wrist_dev_l	
2.4600	-30.862609	-20.187469	30.989611	-72.955436	858.724522	-43.618059	25.923785	-45.000000	39.414410	-45.000000	-45.000000	-4066.197525	-4063.632948	156.434400	20.280031	1078.201004	-204.977676	13.535081	13.800295	-0.334873	33.019306	-33.057325	-45.000000	-45.000000	-2792.061868	-3686.471510	131.782114	-98.406545	710.349561	39.511092	14.173866	-21.386946	
2.4700	-30.968337	-20.152454	30.821836	-73.740306	859.855951	-43.532423	25.859489	-45.000000	39.403457	-45.000000	-45.000000	-4066.264093	-4063.632403	156.397423	20.086783	1078.134062	-204.916568	13.751972	13.795444	-0.336189	33.024701	-33.059154	-45.000000	-45.000000	-2792.056776	-3686.469057	131.754282	-98.342068	710.431978	40.109412	14.026529	-21.696400	
2.4800	-31.074433	-20.117702	30.663124	-74.541527	860.913237	-43.447946	25.796509	-45.000000	39.380892	-45.000000	-45.000000	-4066.331873	-4063.624517	156.364859	19.908153	1078.066285	-204.798291	13.979171	13.787455	-0.342754	33.029512	-33.050462	-45.000000	-45.000000	-2792.059884	-3686.476606	131.734815	-98.305106	710.516737	40.782835	13.856398	-22.008250	
2.4900	-31.185147	-20.091819	30.511260	-75.359224	861.890925	-43.371394	25.735024	-45.000000	39.357743	-45.000000	-45.000000	-4066.403184	-4063.624935	156.333162	19.749082	1078.003107	-204.614221	14.218372	13.771733	-0.346420	33.028033	-33.034932	-45.000000	-45.000000	-2792.063106	-3686.492598	131.720216	-98.291840	710.604587	41.525236	13.670793	-22.324756	
2.5000	-31.296701	-20.071684	30.370872	-76.193564	862.783622	-43.310142	25.673435	-45.000000	39.327295	-45.000000	-45.000000	-4066.473799	-4063.619941	156.309809	19.610663	1077.939077	-204.357663	14.462653	13.755617	-0.354689	33.028920	-33.007496	-45.000000	-45.000000	-2792.079078	-3686.515314	131.713714	-98.302122	710.697803	42.322758	13.466351	-22.629443	
2.5100	-31.413163	-20.059759	30.236715	-77.044545	863.586561	-43.271480	25.616332	-45.000000	39.297231	-45.000000	-45.000000	-4066.549449	-4063.624676	156.286914	19.498637	1077.881949	-204.027354	14.714165	13.733180	-0.361714	33.021895	-32.979484	-45.000000	-45.000000	-2792.088734	-3686.546033	131.704419	-98.329441	710.788801	43.158632	13.259706	-22.927096	
2.5200	-31.526838	-20.054440	30.116003	-77.911856	864.296565	-43.261954	25.560085	-45.000000	39.261974	-45.000000	-45.000000	-4066.623788	-4063.622998	156.275374	19.412431	1077.825430	-203.623049	14.964757	13.712618	-0.372827	33.019045	-32.939509	-45.000000	-45.000000	-2792.110515	-3686.582987	131.703233	-98.375076	710.878134	44.011517	13.044560	-23.198671	
2.5300	-31.640315	-20.058826	30.005853	-78.794495	864.912637	-43.286894	25.510594	-45.000000	39.225343	-45.000000	-45.000000	-4066.702583	-4063.628436	156.266617	19.358471	1077.776676	-203.148807	15.216412	13.686630	-0.383218	33.008761	-32.895316	-45.000000	-45.000000	-2792.125116	-3686.627267	131.701232	-98.433559	710.958103	44.863721	12.836848	-23.450160	
2.5400	-31.749422	-20.069126	29.905780	-79.690707	865.436475	-43.350106	25.463069	-45.000000	39.186937	-45.000000	-45.000000	-4066.779520	-4063.631177	156.270714	19.338855	1077.729331	-202.609151	15.464037	13.665025	-0.397294	33.003605	-32.839593	-45.000000	-45.000000	-2792.150357	-3686.676881	131.704310	-98.504712	711.032373	45.694807	12.629103	-23.671026	
2.5500	-31.855652	-20.089453	29.816088	-80.597829	865.872409	-43.453732	25.422282	-45.000000	39.146567	-45.000000	-45.000000	-4066.859869	-4063.641118	156.279351	19.355660	1077.687187	-202.012729	15.709645	13.639430	-0.410430	32.991647	-32.778222	-45.000000	-45.000000	-2792.169506	-3686.731599	131.705964	-98.583858	711.095152	46.493102	12.434110	-23.868528	
2.5600	-31.958404	-20.115888	29.733010	-81.512476	866.227043	-43.598246	25.384352	-45.000000	39.103966	-45.000000	-45.000000	-4066.937808	-4063.651356	156.298357	19.410151	1077.646034	-201.367837	15.951251	13.618928	-0.426870	32.983678	-32.706310	-45.000000	-45.000000	-2792.195073	-3686.787256	131.710439	-98.670272	711.151926	47.246289	12.242979	-24.039941	
2.5700	-32.057442	-20.146034	29.654638	-82.430628	866.508482	-43.782567	25.351201	-45.000000	39.061314	-45.000000	-45.000000	-4067.021056	-4063.665522	156.322053	19.499250	1077.602317	-200.685778	16.190771	13.596946	-0.442140	32.970591	-32.629187	-45.000000	-45.000000	-2792.215668	-3686.844962	131.709609	-98.761453	711.200924	47.950066	12.063678	-24.192689	
2.5800	-32.152010	-20.183088	29.583156	-83.347947	866.725385	-44.004310	25.320647	-45.000000	39.017220	-45.000000	-45.000000	-4067.100115	-4063.678767	156.354056	19.621225	1077.562692	-199.975543	16.423813	13.578036	-0.459482	32.961069	-32.545983	-45.000000	-45.000000	-2792.239087	-3686.901669	131.713800	-98.860442	711.244261	48.602742	11.887760	-24.325858	
2.5900	-32.239158	-20.232062	29.524409	-84.259908	866.885870	-44.260125	25.297031	-45.000000	38.975850	-45.000000	-45.000000	-4067.181734	-4063.693718	156.390283	19.768993	1077.524923	-199.242228	16.649417	13.551954	-0.474866	32.947656	-32.462843	-45.000000	-45.000000	-2792.254633	-3686.961187	131.721888	-98.971589	711.280959	49.213697	11.719999	-24.444713	
2.6000	-32.316882	-20.296935	29.482403	-85.162102	866.996598	-44.546089	25.279519	-45.000000	38.935800	-45.000000	-45.000000	-4067.259079	-4063.706624	156.433273	19.939535	1077.495487	-198.487906	16.864529	13.522031	-0.492365	32.937027	-32.378991	-45.000000	-45.000000	-2792.268215	-3687.022696	131.741400	-99.100635	711.313224	49.793109	11.552576	-24.550150	
2.6100	-32.383584	-20.376364	29.456199	-86.050304	867.062012	-44.858008	25.269935	-45.000000	38.899294	-45.000000	-45.000000	-4067.339630	-4063.719633	156.479062	20.127027	1077.466673	-197.715986	17.069262	13.482532	-0.509952	32.924356	-32.295948	-45.000000	-45.000000	-2792.274733	-3687.089539	131.765393	-99.248831	711.342911	50.352141	11.388497	-24.646363	
2.6200	-32.440879	-20.469530	29.443156	-86.920308	867.083987	-45.191467	25.264940	-45.000000	38.862642	-45.000000	-45.000000	-4067.416169	-4063.731836	156.528180	20.332278	1077.446075	-196.934146	17.259944	13.439068	-0.531368	32.913996	-32.210749	-45.000000	-45.000000	-2792.279985	-3687.157629	131.795321	-99.413804	711.371299	50.894088	11.223452	-24.733216	
2.6300	-32.489289	-20.570702	29.437480	-87.767547	867.061853	-45.541644	25.264785	-45.000000	38.829779	-45.000000	-45.000000	-4067.495594	-4063.744653	156.578052	20.552734	1077.425230	-196.152999	17.435504	13.388894	-0.554641	32.902459	-32.122135	-45.000000	-45.000000	-2792.282429	-3687.226734	131.822433	-99.590139	711.401002	51.418794	11.061375	-24.810869	
2.6400	-32.531216	-20.674924	29.433578	-88.586734	866.992835	-45.903054	25.265293	-45.000000	38.797438	-45.000000	-45.000000	-4067.572862	-4063.756225	156.628929	20.789419	1077.408418	-195.387985	17.594032	13.338595	-0.582697	32.892416	-32.026676	-45.000000	-45.000000	-2792.288023	-3687.291978	131.844115	-99.770369	711.432894	51.917764	10.901368	-24.876769	
2.6500	-32.567286	-20.781212	29.428902	-89.371557	866.872755	-46.269320	25.266608	-45.000000	38.768054	-45.000000	-45.000000	-4067.649935	-4063.768293	156.678931	21.037922	1077.391576	-194.654807	17.734533	13.284775	-0.612340	32.881746	-31.924183	-45.000000	-45.000000	-2792.296434	-3687.353733	131.858941	-99.947203	711.466667	52.381752	10.748176	-24.928293	
2.6600	-32.598744	-20.893981	29.426417	-90.114613	866.696843	-46.633286	25.267828	-45.000000	38.739921	-45.000000	-45.000000	-4067.718004	-4063.781246	156.728136	21.297011	1077.388150	-193.966194	17.854483	13.229173	-0.644895	32.871669	-31.816361	-45.000000	-45.000000	-2792.309012	-3687.410091	131.873149	-100.117238	711.500221	52.801221	10.602322	-24.963878	
2.6700	-32.622310	-21.017017	29.432523	-90.807629	866.460535	-46.987476	25.272008	-45.000000	38.719126	-45.000000	-45.000000	-4067.781016	-4063.796379	156.777220	21.556211	1077.391974	-193.328200	17.957537	13.165213	-0.676346	32.860282	-31.709714	-45.000000	-45.000000	-2792.323053	-3687.465347	131.891592	-100.281564	711.526629	53.173621	10.469310	-24.985063	
2.6800	-32.636828	-21.149800	29.450822	-91.442146	866.160070	-47.325048	25.280884	-45.000000	38.702579	-45.000000	-45.000000	-4067.837639	-4063.810600	156.825457	21.810388	1077.405051	-192.741317	18.047422	13.097545	-0.708942	32.848570	-31.606473	-45.000000	-45.000000	-2792.338953	-3687.520537	131.914070	-100.444039	711.544662	53.497363	10.349152	-24.995353	
2.6900	-32.640027	-21.294988	29.486567	-92.010010	865.793034	-47.640644	25.294157	-45.000000	38.693851	-45.000000	-45.000000	-4067.889243	-4063.825319	156.874267	22.051415	1077.424406	-192.204249	18.127566	13.022248	-0.739274	32.836242	-31.509781	-45.000000	-45.000000	-2792.356210	-3687.578614	131.944821	-100.605062	711.551043	53.773783	10.244255	-24.998696	
2.7000	-32.634175	-21.449160	29.537878	-92.504012	865.358716	-47.931097	25.313673	-45.000000	38.688054	-45.000000	-45.000000	-4067.933231	-4063.839020	156.920297	22.281294	1077.455333	-191.712683	18.197828	12.949194	-0.771001	32.823541	-31.418719	-45.000000	-45.000000	-2792.374186	-3687.636994	131.978099	-100.765959	711.550887	54.002557	10.152891	-24.998888	
2.7100	-32.616310	-21.616066	29.609690	-92.918274	864.858397	-48.195570	25.334780	-45.000000	38.692667	-45.000000	-45.000000	-4067.971068	-4063.853454	156.968743	22.491220	1077.490201	-191.264983	18.262232	12.870865	-0.799468	32.810730	-31.335711	-45.000000	-45.000000	-2792.393351	-3687.697488	132.019472	-100.923699	711.539366	54.185410	10.077347	-24.998015	
2.7200	-32.591387	-21.787700	29.694231	-93.248857	864.295335	-48.435338	25.363768	-45.000000	38.698090	-45.000000	-45.000000	-4068.003943	-4063.866780	157.011661	22.687325	1077.526273	-190.852902	18.320449	12.804885	-0.830573	32.797888	-31.260736	-45.000000	-45.000000	-2792.411189	-3687.756320	132.057505	-101.078787	711.521694	54.321439	10.016548	-24.996427	
2.7300	-32.554891	-21.969498	29.797039	-93.493850	863.674853	-48.652971	25.391672	-45.000000	38.710727	-45.000000	-45.000000	-4068.028839	-4063.879121	157.054611	22.863402	1077.562017	-190.474640	18.374732	12.737972	-0.858062	32.786405	-31.188001	-45.000000	-45.000000	-2792.433426	-3687.811558	132.098103	-101.227113	711.497252	54.408895	9.970830	-24.993646	
2.7400	-32.513994	-22.150608	29.906999	-93.653619	863.003741	-48.851553	25.428495	-45.000000	38.718633	-45.000000	-45.000000	-4068.047981	-4063.891816	157.086323	23.031802	1077.599545	-190.120687	18.421460	12.694064	-0.891388	32.773680	-31.122828	-45.000000	-45.000000	-2792.451997	-3687.864022	132.129933	-101.365089	711.470799	54.444569	9.940212	-24.988492	
2.7500	-32.461710	-22.338975	30.031495	-93.730715	862.290182	-49.033820	25.461540	-45.000000	38.734506	-45.000000	-45.000000	-4068.058782	-4063.905649	157.120269	23.177844	1077.630877	-189.791668	18.467859	12.647209	-0.919472	32.763449	-31.057891	-45.000000	-45.000000	-2792.474982	-3687.911656	132.165275	-101.491202	711.435999	54.425794	9.925789	-24.980371	
